<?xml version="1.0" standalone="no"?>
<!DOCTYPE svg PUBLIC "-//W3C//DTD SVG 20010904//EN"
 "http://www.w3.org/TR/2001/REC-SVG-20010904/DTD/svg10.dtd">
<svg version="1.0" xmlns="http://www.w3.org/2000/svg"
 width="1080.000000pt" height="1080.000000pt" viewBox="0 0 1080.000000 1080.000000"
 preserveAspectRatio="xMidYMid meet">
<metadata>
Created by potrace 1.14, written by Peter Selinger 2001-2017
</metadata>
<g transform="translate(0.000000,1080.000000) scale(0.100000,-0.100000)"
fill="#000000" stroke="none">
<path d="M3727 10134 c-2 -2 -25 -6 -53 -9 -27 -3 -60 -8 -74 -10 -14 -3 -41
-7 -60 -10 -19 -3 -43 -8 -52 -11 -9 -3 -25 -6 -35 -8 -10 -2 -38 -9 -63 -16
-25 -7 -49 -13 -55 -15 -12 -2 -34 -11 -99 -36 -27 -10 -53 -19 -58 -19 -34 0
-391 -193 -418 -225 -7 -8 -17 -15 -22 -15 -5 0 -15 -6 -23 -12 -24 -24 -55
-48 -55 -44 0 20 -236 -216 -314 -314 -37 -47 -74 -93 -82 -102 -7 -10 -11
-18 -9 -18 3 0 1 -6 -5 -12 -21 -24 -79 -118 -73 -118 3 0 -1 -8 -10 -18 -17
-18 -110 -209 -111 -227 -1 -5 -7 -20 -14 -32 -7 -13 -10 -23 -6 -23 3 0 1 -6
-5 -13 -6 -8 -8 -17 -4 -20 3 -4 1 -7 -6 -7 -7 0 -9 -4 -6 -10 3 -5 2 -10 -4
-10 -6 0 -8 -7 -5 -15 4 -8 1 -15 -6 -15 -6 0 -9 -4 -6 -8 3 -5 -4 -42 -15
-83 -10 -41 -21 -85 -24 -99 -3 -14 -7 -36 -10 -50 -3 -14 -8 -47 -11 -75 -3
-27 -8 -66 -10 -85 -8 -52 -11 -380 -4 -380 3 0 6 -15 6 -32 2 -79 10 -148 16
-148 4 0 5 -9 3 -20 -2 -11 0 -20 4 -20 4 0 6 -13 5 -30 -1 -16 2 -30 6 -30 5
0 7 -9 5 -20 -2 -11 0 -20 5 -20 4 0 7 -8 5 -17 -1 -10 4 -30 11 -44 7 -15 11
-29 8 -32 -3 -3 -2 -12 2 -19 9 -13 14 -33 16 -55 1 -7 5 -13 10 -13 4 0 8 -9
8 -20 0 -11 4 -28 9 -38 5 -9 19 -44 32 -77 12 -33 26 -64 31 -69 4 -6 8 -18
8 -27 0 -10 6 -19 13 -22 6 -3 -72 -5 -175 -5 -239 -1 -299 -17 -393 -103 -67
-62 -98 -136 -101 -239 -3 -85 17 -180 38 -180 5 0 7 -4 3 -10 -3 -5 3 -18 15
-30 11 -11 20 -23 20 -27 1 -10 77 -66 110 -80 88 -39 56 -38 1205 -38 1209 0
1147 -3 1246 57 44 27 88 69 102 98 4 8 15 29 26 45 28 46 191 338 191 342 0
2 9 13 20 25 12 13 20 16 20 9 0 -13 150 -286 170 -308 6 -7 8 -13 5 -13 -4 0
3 -13 14 -29 12 -16 21 -34 21 -39 0 -6 6 -17 13 -24 7 -7 21 -31 31 -53 11
-22 22 -42 25 -45 4 -3 18 -27 32 -55 32 -62 52 -99 60 -105 3 -3 13 -21 22
-40 10 -19 31 -57 47 -85 16 -27 36 -66 45 -85 9 -19 19 -37 23 -40 4 -3 15
-21 24 -40 24 -48 72 -134 79 -140 3 -3 12 -20 20 -37 8 -18 17 -33 21 -33 5
0 7 -3 6 -7 -2 -8 9 -29 88 -166 19 -32 34 -63 34 -68 0 -6 5 -7 10 -4 6 3 10
-1 10 -9 0 -9 4 -16 8 -16 5 0 22 -11 38 -25 27 -24 77 -51 99 -55 6 -2 21 -7
35 -12 59 -22 203 -1 269 40 41 25 114 105 136 148 11 21 22 41 25 44 3 3 13
21 23 40 22 41 37 70 95 168 23 41 42 78 42 83 0 5 3 9 8 9 4 0 16 20 27 45
11 25 23 45 27 45 5 0 8 5 8 11 0 7 13 34 30 60 16 27 26 49 22 49 -4 0 -2 4
3 8 11 7 62 91 64 104 1 4 14 27 30 50 l29 42 339 1 c334 1 339 1 402 26 113
43 208 159 224 275 3 23 7 45 8 50 1 5 0 14 -1 19 -2 6 -4 21 -4 35 -3 38 -26
110 -35 110 -5 0 -11 10 -15 23 -3 13 -26 45 -51 70 -56 58 -100 81 -195 104
-27 6 -924 5 -959 -2 -46 -8 -141 -54 -148 -71 -3 -8 -10 -14 -17 -14 -10 -1
-76 -80 -76 -93 0 -3 -19 -38 -42 -79 -58 -99 -73 -126 -97 -175 -12 -24 -26
-43 -31 -43 -6 0 -9 -3 -8 -7 2 -11 -24 -65 -39 -81 -11 -11 -15 -8 -24 15 -6
15 -16 35 -23 43 -7 8 -30 45 -50 83 -88 162 -110 202 -115 207 -3 3 -24 39
-45 80 -22 41 -42 77 -45 80 -3 3 -17 28 -31 55 -13 28 -27 52 -30 55 -3 3
-16 28 -30 55 -14 28 -27 52 -31 55 -3 3 -21 34 -40 70 -18 36 -36 67 -39 70
-4 3 -16 25 -29 50 -12 25 -32 61 -43 80 -11 19 -33 58 -48 85 -15 28 -38 68
-50 90 -13 22 -33 58 -44 80 -12 22 -23 42 -26 45 -3 3 -14 23 -25 45 -30 59
-92 118 -160 151 -55 27 -69 29 -165 29 -94 -1 -110 -3 -156 -27 -57 -30 -129
-96 -139 -128 -3 -11 -11 -20 -17 -20 -6 0 -8 -3 -5 -7 4 -3 3 -11 -2 -17 -4
-6 -20 -32 -35 -58 -35 -64 -68 -122 -105 -188 -18 -30 -39 -71 -49 -90 -9
-19 -20 -37 -23 -40 -3 -3 -23 -36 -44 -75 -20 -38 -42 -76 -47 -82 -6 -7 -7
-13 -2 -13 5 0 4 -4 -2 -8 -6 -4 -26 -34 -45 -67 -18 -33 -38 -63 -43 -67 -6
-4 -8 -8 -3 -8 4 0 0 -11 -8 -24 l-16 -23 -369 -1 c-427 0 -370 -16 -466 133
-78 119 -162 298 -166 353 -2 12 -6 22 -10 22 -4 0 -8 13 -8 28 0 16 -3 32 -7
35 -3 4 -8 17 -9 29 -2 13 -6 37 -9 53 -4 17 -7 45 -8 62 -1 18 -4 33 -7 33
-3 0 -5 24 -5 53 0 28 -4 58 -9 65 -5 7 -4 12 2 12 7 0 8 11 4 28 -7 24 -7 47
-3 62 1 3 4 34 6 70 2 36 8 78 14 93 6 16 7 26 2 23 -7 -4 17 99 35 154 3 8 5
16 5 17 -1 2 10 28 24 58 13 31 25 59 26 63 5 20 13 38 21 43 5 3 10 16 11 27
1 12 5 22 9 22 4 0 8 7 8 15 0 8 3 15 8 15 4 0 20 23 35 51 16 28 35 53 43 56
8 3 11 9 8 14 -9 16 218 232 306 290 102 67 212 126 250 133 3 1 10 4 15 7 15
10 176 57 215 64 19 3 53 9 75 13 22 3 105 6 185 6 125 0 171 -4 250 -18 89
-16 280 -75 280 -87 0 -5 6 -9 13 -9 28 0 162 -75 257 -144 87 -63 194 -176
350 -371 149 -186 170 -211 170 -200 0 3 10 -5 23 -18 27 -29 119 -73 178 -86
80 -16 160 -13 242 12 42 12 86 31 97 40 11 9 23 17 26 17 3 0 12 7 20 15 8 8
23 20 32 27 10 7 49 51 87 98 38 47 75 90 80 95 6 6 29 33 51 60 53 67 198
214 254 256 25 19 47 37 48 41 2 5 10 8 17 8 7 0 15 4 17 8 4 11 121 82 135
82 6 0 13 4 15 8 4 10 171 82 191 82 7 0 17 3 21 7 3 4 12 8 19 10 7 1 48 11
93 22 45 11 110 24 145 28 93 11 324 8 394 -6 33 -7 71 -14 84 -17 98 -20 277
-102 401 -183 80 -53 300 -257 300 -279 0 -6 4 -12 8 -14 9 -3 70 -90 90 -127
61 -115 76 -150 74 -163 -1 -5 2 -8 7 -8 7 0 35 -71 46 -115 1 -5 5 -17 8 -25
11 -28 31 -135 31 -167 0 -18 3 -33 6 -33 5 0 9 -57 13 -198 1 -34 0 -62 -3
-62 -3 0 -6 -17 -7 -38 -1 -39 -9 -90 -19 -132 -3 -14 -8 -38 -11 -55 -3 -16
-9 -34 -13 -40 -7 -9 -21 -58 -20 -70 0 -3 -6 -18 -14 -34 -9 -16 -12 -31 -9
-35 4 -3 1 -6 -5 -6 -7 0 -11 -3 -10 -7 1 -5 -3 -18 -10 -29 -6 -12 -9 -24 -5
-27 3 -4 -2 -9 -11 -13 -9 -3 -14 -10 -11 -14 3 -5 -2 -16 -11 -24 -8 -9 -13
-16 -9 -16 8 0 -112 -175 -131 -190 -8 -7 -14 -16 -14 -21 0 -5 -8 -17 -17
-27 -10 -10 -31 -35 -48 -56 -16 -22 -40 -51 -52 -65 -13 -14 -26 -30 -30 -36
-5 -5 -24 -30 -43 -55 -19 -25 -39 -50 -45 -56 -5 -7 -26 -31 -44 -54 -19 -23
-41 -48 -48 -56 -7 -7 -13 -17 -13 -23 0 -5 -6 -14 -13 -18 -7 -4 -57 -64
-112 -133 -54 -69 -104 -130 -110 -137 -5 -6 -21 -26 -35 -44 -14 -18 -31 -38
-37 -45 -7 -7 -13 -17 -13 -23 0 -6 -7 -11 -15 -11 -8 0 -14 -3 -12 -8 2 -6
-50 -76 -88 -118 -5 -6 -23 -28 -40 -50 -16 -21 -45 -56 -63 -78 -18 -23 -39
-48 -45 -56 -105 -132 -173 -216 -179 -218 -4 -2 -8 -8 -8 -13 0 -5 -14 -23
-30 -39 -17 -17 -28 -30 -25 -30 4 0 0 -6 -7 -13 -12 -13 -46 -54 -115 -141
-18 -23 -44 -54 -58 -71 -20 -25 -98 -121 -148 -185 -66 -84 -94 -118 -107
-132 -8 -9 -19 -23 -25 -30 -14 -18 -87 -110 -100 -125 -5 -7 -14 -18 -20 -25
-16 -21 -89 -111 -107 -133 -17 -21 -185 -230 -230 -286 -14 -19 -35 -44 -45
-56 -47 -55 -53 -64 -53 -74 0 -5 -4 -7 -10 -4 -5 3 -10 -1 -10 -9 0 -9 -4
-16 -10 -16 -5 0 -10 -4 -10 -10 0 -5 -8 -18 -17 -28 -23 -23 -41 -45 -130
-157 -92 -117 -109 -132 -174 -154 -66 -24 -162 -20 -217 8 -38 20 -95 77
-148 147 -16 21 -41 53 -56 69 -16 17 -28 33 -28 36 0 4 -12 21 -27 37 -16 17
-52 63 -82 101 -30 39 -58 71 -63 71 -4 0 -8 5 -8 11 0 8 -58 87 -80 109 -3 3
-95 118 -204 255 -109 138 -205 255 -212 261 -8 6 -14 15 -14 19 0 4 -12 22
-27 40 -31 35 -48 56 -178 220 -88 111 -131 165 -166 207 -27 33 -32 39 -62
79 l-28 37 -457 0 c-251 0 -451 -2 -444 -5 6 -3 12 -11 12 -19 0 -8 5 -14 10
-14 6 0 10 -7 10 -17 0 -9 3 -14 6 -10 4 3 24 -17 45 -46 21 -29 46 -61 56
-73 10 -11 27 -33 38 -48 11 -15 28 -37 38 -49 10 -12 31 -37 45 -56 15 -19
32 -39 37 -45 6 -6 23 -29 39 -51 17 -22 33 -42 37 -45 4 -3 24 -27 44 -55 21
-27 41 -52 44 -55 3 -3 22 -25 41 -50 19 -25 40 -52 47 -60 7 -8 71 -89 143
-180 73 -91 144 -181 160 -200 15 -19 60 -75 99 -125 39 -49 82 -102 96 -117
14 -16 23 -28 20 -28 -3 0 3 -8 13 -18 9 -10 31 -36 47 -57 17 -21 35 -43 40
-49 6 -6 32 -40 60 -76 27 -36 53 -66 57 -68 5 -2 8 -7 8 -12 0 -4 18 -27 40
-51 22 -24 40 -47 40 -51 0 -4 12 -21 28 -37 15 -16 32 -36 37 -43 73 -94 94
-120 126 -158 8 -10 24 -31 35 -45 108 -149 311 -317 424 -350 14 -4 39 -13
55 -21 29 -12 103 -34 135 -40 119 -19 223 -23 325 -12 130 15 310 83 422 159
23 16 44 29 47 29 3 0 14 8 24 17 10 10 36 34 58 54 44 42 93 95 144 159 19
24 43 52 53 62 9 10 14 18 10 18 -5 1 3 10 16 20 13 11 21 20 18 20 -4 0 4 11
16 23 12 13 33 39 47 57 41 55 89 114 110 135 11 12 20 24 20 28 0 7 39 53 83
99 9 10 14 18 11 18 -7 0 87 113 98 118 5 2 8 10 8 18 0 7 9 19 20 26 11 7 20
17 20 21 0 5 6 14 13 21 6 7 26 30 42 51 17 21 45 56 63 77 17 22 32 44 32 50
0 5 5 6 10 3 6 -3 10 -1 10 6 0 6 12 26 28 44 49 58 77 92 97 121 11 15 25 32
30 38 6 6 26 31 45 56 19 25 38 47 42 48 5 2 8 10 8 18 0 9 5 12 10 9 6 -3 10
-2 10 3 0 5 21 36 48 69 26 33 61 77 77 98 57 73 95 120 120 150 13 17 37 46
52 65 15 19 30 37 33 40 3 3 19 23 35 45 41 55 56 73 87 106 15 16 25 29 23
29 -5 0 81 109 94 120 3 3 26 32 51 65 25 32 52 67 60 76 8 10 20 24 25 31 26
34 90 115 104 130 29 32 42 48 37 48 -3 0 5 11 17 23 12 13 34 39 49 58 104
132 154 195 163 205 5 6 21 26 35 44 28 37 113 144 138 175 10 11 35 43 57 70
22 28 43 52 48 53 4 2 7 8 7 12 0 5 16 26 35 47 19 21 35 43 35 48 0 6 8 18
17 27 22 20 30 30 68 88 16 25 32 47 35 50 7 8 45 76 82 150 18 36 37 68 41
71 5 3 9 10 9 15 0 10 13 46 33 89 14 33 65 185 70 213 2 9 4 17 5 17 1 0 3 7
5 15 19 72 22 90 17 94 -3 4 -1 6 4 6 5 0 9 12 10 28 0 15 4 45 9 67 7 40 11
69 18 156 3 26 8 52 11 58 4 6 3 11 -2 11 -9 0 -6 69 3 78 2 3 0 13 -6 23 -6
13 -6 19 0 19 7 0 7 9 1 25 -6 17 -6 25 1 25 6 0 7 6 2 13 -4 6 -8 30 -10 52
-4 69 -20 198 -28 235 -4 14 -9 41 -12 60 -3 19 -8 37 -12 40 -3 3 -7 12 -7
20 -3 27 -12 64 -22 90 -5 14 -10 28 -11 33 0 4 -7 22 -14 40 -8 17 -20 50
-27 72 -7 22 -16 44 -21 49 -5 6 -9 18 -9 28 0 10 -4 18 -10 18 -5 0 -10 12
-10 26 0 14 -4 23 -8 20 -5 -3 -14 12 -22 32 -7 20 -21 49 -31 64 -11 14 -19
31 -19 37 0 6 -4 11 -10 11 -5 0 -10 5 -10 10 0 14 -70 124 -81 128 -5 2 -9 9
-9 15 0 7 -10 23 -22 37 -13 14 -41 48 -63 75 -60 76 -222 236 -295 291 -36
27 -67 52 -70 55 -8 9 -128 89 -134 89 -3 0 -30 15 -59 34 -43 28 -114 64
-137 71 -3 0 -25 11 -50 22 -71 33 -215 80 -330 107 -106 25 -144 31 -279 45
-78 8 -328 6 -389 -3 -21 -3 -70 -10 -111 -16 -122 -17 -373 -86 -458 -125
-17 -8 -34 -15 -38 -15 -21 0 -314 -157 -335 -180 -3 -3 -17 -11 -33 -19 -15
-8 -42 -27 -59 -43 -17 -15 -34 -28 -37 -28 -6 0 -25 -16 -140 -118 -63 -55
-89 -82 -183 -185 l-43 -48 -63 75 c-85 101 -292 305 -292 288 0 -3 -12 6 -27
19 -75 68 -289 196 -423 253 -80 33 -196 77 -217 80 -12 3 -31 10 -42 16 -12
6 -21 9 -21 6 0 -3 -15 0 -32 5 -55 17 -152 36 -273 55 -43 6 -432 14 -438 8z"/>
<path d="M3269 4046 c-4 -4 -16 -9 -28 -11 -68 -13 -210 -124 -211 -165 0 -8
-7 -24 -15 -34 -8 -10 -12 -23 -9 -27 3 -5 1 -9 -4 -9 -10 0 -10 1 -17 -110
-3 -47 -7 -93 -9 -102 -2 -10 -1 -18 2 -18 4 0 7 -13 7 -30 1 -16 -3 -30 -8
-30 -4 0 -5 -5 -2 -11 9 -14 12 -99 4 -99 -4 0 -3 -15 1 -34 5 -22 3 -39 -3
-45 -6 -6 -7 -11 -2 -11 6 0 10 -16 10 -35 0 -19 -3 -35 -7 -35 -4 0 -4 -10 1
-22 4 -13 5 -35 0 -50 -4 -16 -3 -30 2 -33 5 -4 5 -14 -1 -26 -6 -10 -7 -19
-3 -19 5 0 8 -13 8 -30 1 -16 -3 -30 -7 -30 -4 0 -5 -7 -1 -17 6 -15 7 -73 3
-90 -1 -5 -1 -12 0 -18 6 -28 5 -65 -2 -65 -4 0 -4 -10 1 -22 4 -13 5 -35 0
-50 -4 -15 -4 -30 0 -32 4 -3 4 -32 1 -65 -3 -34 -3 -61 0 -61 3 0 5 -13 5
-30 1 -16 -3 -30 -8 -30 -4 0 -4 -7 1 -16 5 -9 6 -32 2 -50 -4 -19 -5 -34 -1
-34 3 0 6 -14 6 -30 1 -17 -3 -30 -7 -30 -4 0 -5 -7 -1 -17 6 -15 7 -73 3 -90
-1 -5 -1 -12 0 -18 6 -28 5 -65 -2 -65 -4 0 -4 -10 1 -22 4 -13 5 -35 0 -50
-4 -15 -4 -30 0 -32 4 -3 4 -32 1 -65 -3 -34 -3 -61 0 -61 3 0 5 -14 5 -30 1
-17 -3 -30 -8 -30 -4 0 -4 -7 1 -16 5 -9 6 -32 2 -50 -4 -19 -5 -34 -1 -34 3
0 6 -13 6 -30 1 -16 -3 -30 -7 -30 -4 0 -5 -7 -1 -17 6 -15 7 -73 3 -90 -1 -5
-1 -12 0 -18 6 -28 5 -65 -2 -65 -4 0 -4 -10 1 -22 4 -13 5 -35 0 -50 -4 -15
-4 -30 0 -32 4 -3 4 -32 1 -65 -3 -34 -3 -61 0 -61 3 0 5 -13 5 -30 1 -16 -3
-30 -8 -30 -4 0 -4 -7 1 -16 5 -9 6 -32 2 -50 -4 -19 -5 -34 -1 -34 3 0 6 -13
6 -30 1 -16 -3 -30 -8 -30 -4 0 -4 -7 1 -17 6 -9 6 -29 2 -45 -5 -15 -5 -30 0
-33 4 -3 7 -17 5 -31 -3 -32 34 -131 67 -176 34 -48 66 -74 137 -110 58 -30
72 -33 150 -32 90 1 141 16 216 67 38 26 105 108 105 129 0 8 7 23 15 35 8 11
17 52 21 89 3 38 7 75 9 82 3 6 0 12 -6 12 -6 0 -7 6 -3 12 11 17 12 48 3 48
-4 0 -4 13 1 29 5 19 4 33 -3 40 -6 6 -7 11 -2 11 6 0 10 11 10 25 0 14 -4 25
-10 25 -7 0 -7 3 0 8 11 7 16 52 6 52 -3 0 -4 52 -1 115 3 63 1 115 -3 115 -5
0 -5 6 -1 12 11 17 12 48 3 48 -4 0 -4 13 1 29 5 19 4 33 -3 40 -6 6 -7 11 -2
11 6 0 10 11 10 25 0 14 -4 25 -10 25 -7 0 -7 3 0 8 12 8 15 52 4 52 -4 0 -3
15 1 34 5 22 3 39 -3 45 -7 7 -7 11 -1 11 5 0 10 9 10 20 0 11 -4 20 -9 20 -4
0 -5 6 0 13 4 6 8 19 8 27 0 13 211 15 1840 15 l1840 0 6 -41 c3 -23 2 -50 -1
-60 -4 -10 -3 -35 0 -56 5 -23 3 -38 -3 -38 -5 0 -4 -6 2 -14 8 -10 9 -16 1
-21 -6 -3 -7 -11 -4 -17 10 -16 10 -108 0 -108 -5 0 -3 -6 3 -14 8 -10 9 -16
1 -21 -6 -3 -8 -11 -4 -16 3 -6 5 -47 5 -92 -2 -120 -1 -170 4 -175 2 -2 0
-15 -5 -28 -5 -13 -6 -24 -2 -24 4 0 6 -21 4 -47 -4 -66 -3 -136 3 -141 2 -2
0 -15 -5 -28 -5 -13 -6 -24 -2 -24 4 0 7 -19 6 -42 0 -24 2 -47 6 -53 9 -12
24 -67 22 -77 -1 -5 2 -8 7 -8 5 0 12 -8 15 -18 11 -34 90 -103 154 -134 108
-53 241 -45 344 21 48 31 78 58 78 70 0 6 4 11 8 11 14 0 61 93 69 136 10 47
11 2784 1 2834 -3 19 -7 36 -8 38 -2 1 -3 5 -4 10 -3 14 -37 73 -54 94 -40 48
-71 72 -132 101 -138 66 -301 37 -408 -73 -38 -38 -81 -111 -86 -145 -1 -5 -4
-14 -7 -20 -3 -5 -5 -22 -4 -37 1 -16 -3 -28 -9 -28 -6 0 -5 -4 3 -9 9 -6 10
-11 2 -15 -6 -4 -8 -12 -5 -18 10 -16 10 -108 0 -108 -5 0 -3 -6 3 -14 8 -10
9 -16 1 -21 -6 -3 -8 -11 -4 -16 3 -6 5 -47 5 -92 -2 -120 -1 -170 4 -175 2
-2 0 -15 -5 -28 -5 -13 -6 -24 -2 -24 4 0 6 -21 4 -47 -4 -66 -3 -136 3 -141
2 -2 0 -15 -5 -28 -5 -13 -6 -24 -2 -24 7 0 7 -46 -1 -123 -2 -21 -1 -40 3
-42 3 -2 4 -19 2 -37 l-4 -33 -1845 0 -1844 0 3 62 c2 35 -1 63 -5 63 -5 0 -5
6 -1 12 11 17 12 48 3 48 -4 0 -4 13 1 29 5 19 4 33 -3 40 -6 6 -7 11 -1 11 5
0 9 11 9 25 0 14 -4 25 -10 25 -7 0 -7 3 0 8 12 8 15 52 4 52 -5 0 -4 11 1 25
6 15 6 25 0 25 -5 0 -5 12 -1 28 5 15 4 37 0 50 -5 13 -5 21 -1 18 5 -3 8 11
8 29 -1 19 -4 35 -8 35 -4 0 -3 12 1 28 5 15 4 37 0 50 -5 13 -5 21 -1 18 5
-3 8 11 8 29 -1 19 -4 35 -8 35 -4 0 -3 12 1 28 5 15 4 37 0 50 -5 13 -5 21
-1 18 5 -3 8 11 8 29 -1 19 -4 35 -8 35 -4 0 -3 13 2 29 5 19 4 33 -3 40 -8 8
-8 11 2 11 7 0 9 5 5 12 -4 6 -8 23 -10 37 -1 14 -3 27 -4 29 -1 1 -4 7 -5 12
-1 6 -4 12 -5 15 -1 3 -3 8 -4 13 -6 27 -52 97 -83 127 -64 63 -146 98 -238
103 -44 2 -83 1 -86 -2z"/>
<path d="M2010 3569 c-55 -14 -137 -65 -174 -110 -15 -19 -35 -43 -44 -54 -9
-11 -16 -22 -15 -25 0 -3 -4 -16 -9 -30 -6 -14 -12 -43 -15 -65 -8 -60 -7
-1835 1 -1874 4 -19 11 -42 16 -51 5 -10 6 -20 3 -24 -3 -3 -1 -6 5 -6 7 0 12
-5 12 -10 0 -25 96 -121 149 -149 89 -48 225 -50 318 -5 112 55 189 161 196
272 1 12 4 22 7 22 3 0 4 406 4 902 -1 656 -5 917 -13 953 -44 183 -246 299
-441 254z"/>
<path d="M8895 3567 c-69 -23 -108 -48 -155 -96 -58 -59 -85 -113 -92 -178 -1
-13 -5 -23 -8 -23 -7 0 -3 -1821 4 -1850 4 -14 8 -29 10 -35 2 -5 6 -22 11
-37 4 -16 11 -28 16 -28 5 0 9 -6 9 -14 0 -7 11 -25 24 -39 13 -14 21 -28 18
-31 -3 -3 2 -6 11 -6 9 0 17 -3 17 -7 0 -15 91 -65 142 -79 147 -39 302 19
389 146 21 30 37 57 37 60 0 3 1 7 2 10 23 59 25 168 25 1010 -1 726 -4 895
-15 940 -8 30 -17 57 -20 60 -3 3 -12 18 -20 34 -24 47 -99 114 -158 142 -67
32 -185 41 -247 21z"/>
</g>
</svg>
